<svg xmlns="http://www.w3.org/2000/svg" version="1.0" viewBox="46.8 157.08 277.65 64" height="100px" width="250px"><g fill="#B8335A"><g><g><path d="M 13.625 0.53125 C 9.71875 0.53125 6.894531 -0.703125 5.15625 -3.171875 C 3.425781 -5.640625 2.5625 -9.300781 2.5625 -14.15625 L 2.5625 -28.59375 C 2.5625 -31.925781 2.90625 -34.664062 3.59375 -36.8125 C 4.28125 -38.957031 5.46875 -40.609375 7.15625 -41.765625 C 8.84375 -42.921875 11.160156 -43.5 14.109375 -43.5 C 18.078125 -43.5 20.941406 -42.484375 22.703125 -40.453125 C 24.460938 -38.429688 25.34375 -35.253906 25.34375 -30.921875 L 25.34375 -29.328125 L 19.703125 -29.328125 L 19.703125 -30.65625 C 19.703125 -32.71875 19.578125 -34.304688 19.328125 -35.421875 C 19.078125 -36.546875 18.550781 -37.390625 17.75 -37.953125 C 16.957031 -38.523438 15.78125 -38.8125 14.21875 -38.8125 C 12.550781 -38.8125 11.304688 -38.425781 10.484375 -37.65625 C 9.671875 -36.894531 9.148438 -35.875 8.921875 -34.59375 C 8.691406 -33.320312 8.578125 -31.617188 8.578125 -29.484375 L 8.578125 -13.515625 C 8.578125 -10.222656 8.972656 -7.859375 9.765625 -6.421875 C 10.566406 -4.984375 12.101562 -4.265625 14.375 -4.265625 C 16.613281 -4.265625 18.148438 -5.039062 18.984375 -6.59375 C 19.816406 -8.15625 20.234375 -10.660156 20.234375 -14.109375 L 20.234375 -17.09375 L 14.75 -17.09375 L 14.75 -21.34375 L 25.65625 -21.34375 L 25.65625 0 L 21.875 0 L 21.296875 -4.953125 C 19.941406 -1.296875 17.382812 0.53125 13.625 0.53125 Z M 13.625 0.53125" transform="translate(54.94 211.125)"/></g></g></g><g fill="#B8335A"><g><g><path d="M 8.40625 0.421875 C 7.238281 0.421875 6.179688 0.0859375 5.234375 -0.578125 C 4.296875 -1.253906 3.5625 -2.140625 3.03125 -3.234375 C 2.5 -4.335938 2.234375 -5.492188 2.234375 -6.703125 C 2.234375 -9.117188 2.75 -11.082031 3.78125 -12.59375 C 4.8125 -14.101562 6.125 -15.300781 7.71875 -16.1875 C 9.3125 -17.070312 11.53125 -18.082031 14.375 -19.21875 L 14.375 -21.40625 C 14.375 -23.425781 14.171875 -24.851562 13.765625 -25.6875 C 13.359375 -26.519531 12.53125 -26.9375 11.28125 -26.9375 C 9.113281 -26.9375 8.03125 -25.484375 8.03125 -22.578125 L 8.03125 -21.03125 L 2.390625 -21.234375 C 2.460938 -24.640625 3.242188 -27.148438 4.734375 -28.765625 C 6.222656 -30.390625 8.53125 -31.203125 11.65625 -31.203125 C 14.601562 -31.203125 16.738281 -30.390625 18.0625 -28.765625 C 19.394531 -27.148438 20.0625 -24.710938 20.0625 -21.453125 L 20.0625 -7.40625 C 20.0625 -5.09375 20.242188 -2.625 20.609375 0 L 15.390625 0 C 14.992188 -2.019531 14.742188 -3.53125 14.640625 -4.53125 C 14.210938 -3.144531 13.472656 -1.972656 12.421875 -1.015625 C 11.378906 -0.0546875 10.039062 0.421875 8.40625 0.421875 Z M 10.640625 -4.46875 C 11.390625 -4.46875 12.117188 -4.757812 12.828125 -5.34375 C 13.535156 -5.9375 14.050781 -6.5 14.375 -7.03125 L 14.375 -15.75 C 12.84375 -14.90625 11.660156 -14.171875 10.828125 -13.546875 C 9.992188 -12.921875 9.300781 -12.203125 8.75 -11.390625 C 8.207031 -10.578125 7.9375 -9.601562 7.9375 -8.46875 C 7.9375 -7.1875 8.164062 -6.195312 8.625 -5.5 C 9.082031 -4.8125 9.753906 -4.46875 10.640625 -4.46875 Z M 10.640625 -4.46875" transform="translate(83.416 211.125)"/></g></g></g><g fill="#B8335A"><g><g><path d="M 13.890625 0.421875 C 12.046875 0.421875 10.304688 -0.460938 8.671875 -2.234375 L 8.671875 0 L 2.984375 0 L 2.984375 -43.125 L 8.671875 -43.125 L 8.671875 -28.328125 C 10.335938 -30.242188 12.273438 -31.203125 14.484375 -31.203125 C 17.285156 -31.203125 19.15625 -30.003906 20.09375 -27.609375 C 21.03125 -25.210938 21.5 -22.554688 21.5 -19.640625 L 21.5 -12.1875 C 21.5 -3.78125 18.960938 0.421875 13.890625 0.421875 Z M 12.71875 -4.046875 C 14.03125 -4.046875 14.875 -4.707031 15.25 -6.03125 C 15.625 -7.363281 15.8125 -9.414062 15.8125 -12.1875 L 15.8125 -19.640625 C 15.8125 -21.910156 15.597656 -23.65625 15.171875 -24.875 C 14.742188 -26.101562 13.859375 -26.71875 12.515625 -26.71875 C 11.265625 -26.71875 9.984375 -26.207031 8.671875 -25.1875 L 8.671875 -5.4375 C 9.847656 -4.507812 11.195312 -4.046875 12.71875 -4.046875 Z M 12.71875 -4.046875" transform="translate(106.09 211.125)"/></g></g></g><g fill="#B8335A"><g><g><path d="M 3.03125 -30.765625 L 8.734375 -30.765625 L 8.734375 -26.40625 C 9.796875 -28.144531 10.882812 -29.367188 12 -30.078125 C 13.125 -30.785156 14.304688 -31.140625 15.546875 -31.140625 C 15.867188 -31.140625 16.171875 -31.125 16.453125 -31.09375 L 16.453125 -24.8125 C 15.316406 -25.238281 14.269531 -25.453125 13.3125 -25.453125 C 12.382812 -25.453125 11.554688 -25.226562 10.828125 -24.78125 C 10.097656 -24.332031 9.398438 -23.5625 8.734375 -22.46875 L 8.734375 0 L 3.03125 0 Z M 3.03125 -30.765625" transform="translate(129.883 211.125)"/></g></g></g><g fill="#B8335A"><g><g><path d="M 3.25 -41.3125 L 8.9375 -41.3125 L 8.9375 -35.34375 L 3.25 -35.34375 Z M 3.25 -30.765625 L 8.9375 -30.765625 L 8.9375 0 L 3.25 0 Z M 3.25 -30.765625" transform="translate(146.968 211.125)"/></g></g></g><g fill="#B8335A"><g><g><path d="M 11.390625 0.421875 C 9.015625 0.421875 7.171875 -0.03125 5.859375 -0.9375 C 4.546875 -1.84375 3.625 -3.179688 3.09375 -4.953125 C 2.5625 -6.722656 2.296875 -9.03125 2.296875 -11.875 L 2.296875 -18.890625 C 2.296875 -23.148438 2.957031 -26.265625 4.28125 -28.234375 C 5.613281 -30.210938 7.984375 -31.203125 11.390625 -31.203125 C 13.878906 -31.203125 15.75 -30.6875 17 -29.65625 C 18.257812 -28.625 19.09375 -27.175781 19.5 -25.3125 C 19.914062 -23.445312 20.125 -20.9375 20.125 -17.78125 L 20.125 -15.28125 L 7.984375 -15.28125 L 7.984375 -9.109375 C 7.984375 -7.222656 8.257812 -5.863281 8.8125 -5.03125 C 9.363281 -4.195312 10.242188 -3.78125 11.453125 -3.78125 C 12.648438 -3.78125 13.460938 -4.195312 13.890625 -5.03125 C 14.316406 -5.863281 14.53125 -7.132812 14.53125 -8.84375 L 14.53125 -10.703125 L 20.0625 -10.703125 L 20.0625 -9.53125 C 20.0625 -6.300781 19.367188 -3.832031 17.984375 -2.125 C 16.609375 -0.425781 14.410156 0.421875 11.390625 0.421875 Z M 14.53125 -18.359375 L 14.53125 -21.140625 C 14.53125 -23.234375 14.328125 -24.726562 13.921875 -25.625 C 13.515625 -26.53125 12.65625 -26.984375 11.34375 -26.984375 C 10.414062 -26.984375 9.710938 -26.769531 9.234375 -26.34375 C 8.753906 -25.925781 8.425781 -25.226562 8.25 -24.25 C 8.070312 -23.269531 7.984375 -21.859375 7.984375 -20.015625 L 7.984375 -18.359375 Z M 14.53125 -18.359375" transform="translate(159.157 211.125)"/></g></g></g><g fill="#B8335A"><g><g><path d="M 3.40625 -43.125 L 9.109375 -43.125 L 9.109375 0 L 3.40625 0 Z M 3.40625 -43.125" transform="translate(181.566 211.125)"/></g></g></g><g fill="#B8335A"><g><g><path d="M 0.375 -3.296875 C 2.1875 -3.296875 3.523438 -3.460938 4.390625 -3.796875 C 5.265625 -4.140625 5.859375 -4.765625 6.171875 -5.671875 C 6.492188 -6.578125 6.65625 -7.96875 6.65625 -9.84375 L 6.65625 -43.125 L 12.609375 -43.125 L 12.609375 -9.734375 C 12.609375 -7.148438 12.34375 -5.082031 11.8125 -3.53125 C 11.28125 -1.988281 10.332031 -0.84375 8.96875 -0.09375 C 7.601562 0.644531 5.695312 1.015625 3.25 1.015625 L 0.375 1.015625 Z M 0.375 -3.296875" transform="translate(205.944 211.125)"/></g></g></g><g fill="#B8335A"><g><g><path d="M 8.40625 0.421875 C 7.238281 0.421875 6.179688 0.0859375 5.234375 -0.578125 C 4.296875 -1.253906 3.5625 -2.140625 3.03125 -3.234375 C 2.5 -4.335938 2.234375 -5.492188 2.234375 -6.703125 C 2.234375 -9.117188 2.75 -11.082031 3.78125 -12.59375 C 4.8125 -14.101562 6.125 -15.300781 7.71875 -16.1875 C 9.3125 -17.070312 11.53125 -18.082031 14.375 -19.21875 L 14.375 -21.40625 C 14.375 -23.425781 14.171875 -24.851562 13.765625 -25.6875 C 13.359375 -26.519531 12.53125 -26.9375 11.28125 -26.9375 C 9.113281 -26.9375 8.03125 -25.484375 8.03125 -22.578125 L 8.03125 -21.03125 L 2.390625 -21.234375 C 2.460938 -24.640625 3.242188 -27.148438 4.734375 -28.765625 C 6.222656 -30.390625 8.53125 -31.203125 11.65625 -31.203125 C 14.601562 -31.203125 16.738281 -30.390625 18.0625 -28.765625 C 19.394531 -27.148438 20.0625 -24.710938 20.0625 -21.453125 L 20.0625 -7.40625 C 20.0625 -5.09375 20.242188 -2.625 20.609375 0 L 15.390625 0 C 14.992188 -2.019531 14.742188 -3.53125 14.640625 -4.53125 C 14.210938 -3.144531 13.472656 -1.972656 12.421875 -1.015625 C 11.378906 -0.0546875 10.039062 0.421875 8.40625 0.421875 Z M 10.640625 -4.46875 C 11.390625 -4.46875 12.117188 -4.757812 12.828125 -5.34375 C 13.535156 -5.9375 14.050781 -6.5 14.375 -7.03125 L 14.375 -15.75 C 12.84375 -14.90625 11.660156 -14.171875 10.828125 -13.546875 C 9.992188 -12.921875 9.300781 -12.203125 8.75 -11.390625 C 8.207031 -10.578125 7.9375 -9.601562 7.9375 -8.46875 C 7.9375 -7.1875 8.164062 -6.195312 8.625 -5.5 C 9.082031 -4.8125 9.753906 -4.46875 10.640625 -4.46875 Z M 10.640625 -4.46875" transform="translate(221.965 211.125)"/></g></g></g><g fill="#B8335A"><g><g><path d="M 3.03125 -30.765625 L 8.734375 -30.765625 L 8.734375 -26.40625 C 9.796875 -28.144531 10.882812 -29.367188 12 -30.078125 C 13.125 -30.785156 14.304688 -31.140625 15.546875 -31.140625 C 15.867188 -31.140625 16.171875 -31.125 16.453125 -31.09375 L 16.453125 -24.8125 C 15.316406 -25.238281 14.269531 -25.453125 13.3125 -25.453125 C 12.382812 -25.453125 11.554688 -25.226562 10.828125 -24.78125 C 10.097656 -24.332031 9.398438 -23.5625 8.734375 -22.46875 L 8.734375 0 L 3.03125 0 Z M 3.03125 -30.765625" transform="translate(244.64 211.125)"/></g></g></g><g fill="#B8335A"><g><g><path d="M 10.015625 0.421875 C 7.347656 0.421875 5.394531 -0.539062 4.15625 -2.46875 C 2.914062 -4.40625 2.296875 -7.609375 2.296875 -12.078125 L 2.296875 -18.046875 C 2.296875 -22.128906 2.832031 -25.34375 3.90625 -27.6875 C 4.988281 -30.03125 6.96875 -31.203125 9.84375 -31.203125 C 11.65625 -31.203125 13.359375 -30.398438 14.953125 -28.796875 L 14.953125 -43.125 L 20.65625 -43.125 L 20.65625 0 L 14.953125 0 L 14.953125 -1.96875 C 13.460938 -0.375 11.816406 0.421875 10.015625 0.421875 Z M 11.453125 -4.046875 C 12.585938 -4.046875 13.753906 -4.4375 14.953125 -5.21875 L 14.953125 -25.390625 C 13.640625 -26.273438 12.4375 -26.71875 11.34375 -26.71875 C 9.101562 -26.71875 7.984375 -24.570312 7.984375 -20.28125 L 7.984375 -11.609375 C 7.984375 -9.117188 8.210938 -7.234375 8.671875 -5.953125 C 9.140625 -4.679688 10.066406 -4.046875 11.453125 -4.046875 Z M 11.453125 -4.046875" transform="translate(261.725 211.125)"/></g></g></g><g fill="#B8335A"><g><g><path d="M 3.25 -41.3125 L 8.9375 -41.3125 L 8.9375 -35.34375 L 3.25 -35.34375 Z M 3.25 -30.765625 L 8.9375 -30.765625 L 8.9375 0 L 3.25 0 Z M 3.25 -30.765625" transform="translate(285.251 211.125)"/></g></g></g><g fill="#B8335A"><g><g><path d="M 11.34375 0.421875 C 8.070312 0.421875 5.753906 -0.539062 4.390625 -2.46875 C 3.023438 -4.40625 2.34375 -7.21875 2.34375 -10.90625 L 2.34375 -19.859375 C 2.34375 -23.546875 3.023438 -26.359375 4.390625 -28.296875 C 5.753906 -30.234375 8.070312 -31.203125 11.34375 -31.203125 C 14.570312 -31.203125 16.867188 -30.234375 18.234375 -28.296875 C 19.597656 -26.359375 20.28125 -23.546875 20.28125 -19.859375 L 20.28125 -10.90625 C 20.28125 -7.21875 19.597656 -4.40625 18.234375 -2.46875 C 16.867188 -0.539062 14.570312 0.421875 11.34375 0.421875 Z M 11.34375 -3.78125 C 12.363281 -3.78125 13.101562 -4.082031 13.5625 -4.6875 C 14.03125 -5.289062 14.316406 -6.035156 14.421875 -6.921875 C 14.535156 -7.804688 14.59375 -9.015625 14.59375 -10.546875 L 14.59375 -20.171875 C 14.59375 -21.703125 14.535156 -22.921875 14.421875 -23.828125 C 14.316406 -24.734375 14.03125 -25.484375 13.5625 -26.078125 C 13.101562 -26.679688 12.363281 -26.984375 11.34375 -26.984375 C 10.3125 -26.984375 9.554688 -26.679688 9.078125 -26.078125 C 8.597656 -25.484375 8.300781 -24.734375 8.1875 -23.828125 C 8.082031 -22.921875 8.03125 -21.703125 8.03125 -20.171875 L 8.03125 -10.546875 C 8.03125 -9.015625 8.082031 -7.804688 8.1875 -6.921875 C 8.300781 -6.035156 8.597656 -5.289062 9.078125 -4.6875 C 9.554688 -4.082031 10.3125 -3.78125 11.34375 -3.78125 Z M 11.34375 -3.78125" transform="translate(297.44 211.125)"/></g></g></g><path stroke-linecap="round" transform="matrix(.00044 3.76919 -3.75 .00044 47.299 155.703)" fill="none" d="M 0.499511 -0.00044254 L 17.211907 0.000481571" stroke="#B8335A"/><path stroke-linecap="round" transform="matrix(0 3.74796 -3.75 0 323.945 155.705)" fill="none" d="M 0.499773 -0.0000854593 L 16.71173 -0.0000854593" stroke="#B8335A"/><path stroke-linecap="round" transform="matrix(3.74732 0 0 3.75 47.308 220.244)" fill="none" d="M 0.499497 -0.000394783 L 73.753996 -0.000394783" stroke="#B8335A"/><path stroke-linecap="round" transform="matrix(3.74732 0 0 3.75 47.308 157.576)" fill="none" d="M 0.499497 0.000461053 L 73.753996 0.000461053" stroke="#B8335A"/></svg>
